<svg xmlns="http://www.w3.org/2000/svg" width="256" height="256"><path fill-opacity=".016" d="M0 128.004v128.004l128.25-.254 128.25-.254.254-127.75L257.008 0H0v128.004m.485.496c0 70.4.119 99.053.265 63.672.146-35.38.146-92.98 0-128C.604 29.153.485 58.1.485 128.5" fill="#1976D2" fill-rule="evenodd"/><path fill-opacity=".063" d="M28.714.619C28.321 1.012 28 4.633 28 8.667V16H15.2c-8.622 0-13.192.392-14 1.2C.281 18.119.002 43.733.01 126.45L.02 234.5l2.338 5c1.287 2.75 4.346 6.842 6.799 9.094 8.715 8 .193 7.492 120.343 7.182 102.01-.263 107.175-.363 110.743-2.137 4.943-2.457 11.13-8.738 13.195-13.396.912-2.059 2.087-4.524 2.61-5.479.59-1.076.873-42.968.745-110-.114-59.545-.451-102.096-.75-94.557l-.543 13.708-5-3.085c-2.75-1.696-5.16-3.225-5.356-3.396-.196-.172.411-2.321 1.349-4.775.937-2.455 1.425-5.344 1.083-6.419-.381-1.202.347-3.65 1.89-6.348C255.197 9.866 250.409 0 239.812 0c-3.842 0-5.39.569-8.154 2.995-1.876 1.648-3.972 4.348-4.656 6-.685 1.653-1.804 3.005-2.488 3.005-2.971 0-6.734 4.867-15.413 19.932-5.091 8.837-9.334 16.069-9.429 16.07-.094 0-.037-6.47.128-14.379.38-18.205.82-17.623-13.329-17.623h-10.387l-.292-7.75L175.5.5h-7l-.292 7.75-.292 7.75h-19.832l-.292-7.75L147.5.5h-7l-.292 7.75-.292 7.75h-19.832l-.292-7.75L119.5.5h-7l-.292 7.75-.292 7.75H92.084l-.292-7.75L91.5.5h-7l-.292 7.75-.292 7.75H64.084l-.292-7.75L63.5.5h-7l-.292 7.75-.292 7.75H36.084l-.292-7.75L35.5.5 32.464.203c-1.67-.164-3.357.024-3.75.416M.482 126.5c0 59.95.121 84.622.268 54.827.147-29.796.147-78.846 0-109C.603 42.172.483 66.55.482 126.5M219.5 79.872l-20 34.812.272 40.628.272 40.627 27.979.281 27.978.28v-73.25C256 82.962 255.814 50 255.586 50c-.227 0-5.466 8.799-11.642 19.553-11.053 19.247-11.277 19.548-14.336 19.25-5.693-.555-4.799-3.825 6.278-22.953l10.007-17.28-2.697-1.779c-1.483-.978-2.921-1.767-3.196-1.754-.275.013-9.5 15.689-20.5 34.835M153.252 138.5c.011 2.2.216 2.982.455 1.738.239-1.244.23-3.044-.02-4s-.446.062-.435 2.262m-5.173 23.083c.048 1.165.285 1.402.604.605.289-.722.253-1.585-.079-1.917-.332-.332-.568.258-.525 1.312m4.734 5.1c.721.289 1.584.253 1.916-.079.332-.332-.258-.568-1.312-.525-1.165.048-1.402.285-.604.604" fill="#1976D2" fill-rule="evenodd"/><path fill-opacity=".388" d="M29.093 1.387c-.777.937-1.06 5.854-.872 15.143.24 11.824.525 13.91 2.029 14.858 1.275.802 2.225.802 3.5 0 1.504-.948 1.789-3.034 2.029-14.858C36.067 2.306 35.54 0 32 0c-.965 0-2.273.624-2.907 1.387m28 0c-.777.937-1.06 5.854-.872 15.143.24 11.824.525 13.91 2.029 14.858 1.275.802 2.225.802 3.5 0 1.504-.948 1.789-3.034 2.029-14.858C64.067 2.306 63.54 0 60 0c-.965 0-2.273.624-2.907 1.387m28 0c-.777.937-1.06 5.854-.872 15.143.24 11.824.525 13.91 2.029 14.858 1.275.802 2.225.802 3.5 0 1.504-.948 1.789-3.034 2.029-14.858C92.067 2.306 91.54 0 88 0c-.965 0-2.273.624-2.907 1.387m28 0c-.777.937-1.06 5.854-.872 15.143.24 11.824.525 13.91 2.029 14.858 1.275.802 2.225.802 3.5 0 1.504-.948 1.789-3.034 2.029-14.858C120.067 2.306 119.54 0 116 0c-.965 0-2.273.624-2.907 1.387m28 0c-.777.937-1.06 5.854-.872 15.143.24 11.824.525 13.91 2.029 14.858 1.275.802 2.225.802 3.5 0 1.504-.948 1.789-3.034 2.029-14.858C148.067 2.306 147.54 0 144 0c-.965 0-2.273.624-2.907 1.387m28 0c-.777.937-1.06 5.854-.872 15.143.24 11.824.525 13.91 2.029 14.858 1.275.802 2.225.802 3.5 0 1.504-.948 1.789-3.034 2.029-14.858C176.067 2.306 175.54 0 172 0c-.965 0-2.273.624-2.907 1.387m64.691.111c-1.494.842-3.834 3.437-5.201 5.766-1.366 2.33-4.03 5.066-5.918 6.081-2.95 1.586-7.514 8.905-32.423 52-15.945 27.585-30.384 52.644-32.089 55.687-2.873 5.13-3.146 6.475-3.755 18.5-.577 11.383-.978 13.556-3.278 17.78l-2.62 4.811 2.343 1.924c2.903 2.384 5.084 1.437 7.975-3.462 1.326-2.248 6.004-6.113 13.3-10.989l11.256-7.52 27.802-48.288c15.291-26.559 28.409-48.419 29.151-48.58.741-.161 2.404.563 3.695 1.609l2.348 1.901-10.245 17.712c-5.634 9.741-10.105 18.419-9.935 19.283.411 2.083 3.166 3.748 5.022 3.036 2.175-.835 25.139-41.392 24.451-43.184-.316-.824-3.069-2.906-6.119-4.627-3.049-1.721-5.528-3.423-5.509-3.783.02-.36.679-1.78 1.465-3.155.786-1.375 1.445-4.255 1.465-6.4.019-2.146 1.19-6.261 2.602-9.146 2.25-4.601 2.436-5.729 1.511-9.165-.581-2.156-2.158-4.955-3.504-6.22-3.111-2.922-10-3.707-13.79-1.571M37.873 61.64C32.968 64.766 32 67.792 32 80c0 17.699 2.301 20 20 20 17.954 0 20.388-2.646 19.834-21.562-.333-11.365-.346-11.416-3.6-14.671L64.967 60.5l-12.233-.267c-10.05-.22-12.703.031-14.861 1.407m51.351 7.536c-.673.673-1.224 1.979-1.224 2.902 0 3.519 2.32 3.982 18.526 3.698 13.736-.241 15.9-.501 16.861-2.026.804-1.275.804-2.225 0-3.5-.962-1.527-3.131-1.785-17.021-2.024-11.535-.198-16.256.064-17.142.95m-.01 16.01c-1.613 1.613-1.54 4.299.156 5.706.974.809 10.53 1.06 33.141.872 29.001-.241 31.868-.417 32.875-2.014.805-1.276.805-2.224 0-3.5-1.007-1.598-3.881-1.773-33.031-2.014-23.996-.198-32.229.038-33.141.95M37.873 117.64C32.968 120.766 32 123.792 32 136c0 17.699 2.301 20 20 20 18.04 0 20.389-2.514 19.842-21.233-.342-11.733-.342-11.734-3.608-15l-3.267-3.267-12.233-.267c-10.05-.22-12.703.031-14.861 1.407m51.351 7.536c-.673.673-1.224 1.979-1.224 2.902 0 3.519 2.32 3.982 18.526 3.698 13.736-.241 15.9-.501 16.861-2.026.804-1.275.804-2.225 0-3.5-.962-1.527-3.131-1.785-17.021-2.024-11.535-.198-16.256.064-17.142.95m-.005 16.005c-1.62 1.62-1.546 4.303.157 5.716.962.799 7.931 1.061 23.142.873 19.465-.241 21.882-.455 22.869-2.02.804-1.276.804-2.224 0-3.5-.987-1.566-3.411-1.778-23.027-2.019-16.21-.198-22.24.049-23.141.95M37.873 173.64C32.968 176.766 32 179.792 32 192c0 17.699 2.301 20 20 20 18.04 0 20.389-2.514 19.842-21.233-.342-11.733-.342-11.734-3.608-15l-3.267-3.267-12.233-.267c-10.05-.22-12.703.031-14.861 1.407m51.351 7.536c-.673.673-1.224 1.979-1.224 2.902 0 3.519 2.32 3.982 18.526 3.698 13.736-.241 15.9-.501 16.861-2.026.804-1.275.804-2.225 0-3.5-.962-1.527-3.131-1.785-17.021-2.024-11.535-.198-16.256.064-17.142.95m-.012 16.012c-1.611 1.611-1.537 4.297.156 5.702.978.812 11.571 1.061 37.141.873 32.814-.241 35.865-.408 36.877-2.013.805-1.276.805-2.224 0-3.5-1.012-1.606-4.07-1.772-37.032-2.012-27.11-.198-36.227.035-37.142.95m110.962 18.062c.315 18.606.418 19.439 3.063 24.911 6.889 14.248 23.224 19.737 37.326 12.544 5.815-2.967 9.336-6.523 12.575-12.705 2.181-4.164 2.382-5.866 2.69-22.801.24-13.215-.002-18.704-.87-19.75-.996-1.2-5.839-1.449-28.157-1.449h-26.954l.327 19.25" fill="#1976D2" fill-rule="evenodd"/><path fill-opacity=".541" d="M222.299 13.96c-1.761 1.073-3.899 3.299-4.75 4.946-1.928 3.728-1.927 4.094.016 4.094.86 0 6.972 3.189 13.581 7.086 6.608 3.897 12.147 6.935 12.308 6.75 1.26-1.45 3.546-7.134 3.546-8.818 0-4.947-2.773-8.789-8.959-12.415-6.989-4.096-11.029-4.517-15.742-1.643m-38.194 62.998-28.255 48.959-.967 13.731c-.777 11.027-1.395 14.491-3.138 17.592-1.663 2.958-1.92 4.259-1.099 5.561 1.791 2.839 4.526 1.922 7.77-2.607 1.984-2.77 6.958-6.87 13.95-11.5l10.865-7.194 27.878-48.356c15.333-26.596 27.655-48.717 27.382-49.158-.272-.441-5.894-3.866-12.493-7.611C219.399 32.63 214 29.214 214 28.783c0-.431-.369-.783-.819-.783-.451 0-13.535 22.031-29.076 48.958" fill="#1976D2" fill-rule="evenodd"/></svg>